<svg width="3428" height="366" viewBox="0 0 3428 366" fill="none" xmlns="http://www.w3.org/2000/svg">
<rect x="173.781" y="231.166" width="75.4704" height="94.8345" fill="#0059FF"/>
<rect y="41" width="75.4704" height="94.8345" fill="#0059FF"/>
<path d="M73.9807 326H2.48242V231.167L174.277 115.762L177.256 41H249.251L246.768 143.359L73.9807 255.754V326Z" fill="#0059FF"/>
<path d="M584.9 81H633.5V291H584.9V81ZM489.5 291H440.9V81H489.5V291ZM588.5 204.9H485.9V163.8H588.5V204.9ZM715.585 291L809.185 81H857.185L951.085 291H900.085L823.285 105.6H842.485L765.385 291H715.585ZM762.385 246L775.285 209.1H883.285L896.485 246H762.385ZM1019.37 291V259.5L1149.27 102.9L1155.27 120.6H1021.77V81H1198.47V112.5L1068.87 269.1L1062.87 251.4H1202.97V291H1019.37ZM1338.84 165.6H1439.94V203.4H1338.84V165.6ZM1342.44 252H1456.74V291H1294.14V81H1452.84V120H1342.44V252ZM1598.91 291V120.6H1531.71V81H1714.71V120.6H1647.51V291H1598.91ZM2014.82 294.6C1998.02 294.6 1981.92 292.4 1966.52 288C1951.12 283.4 1938.72 277.5 1929.32 270.3L1945.82 233.7C1954.82 240.1 1965.42 245.4 1977.62 249.6C1990.02 253.6 2002.52 255.6 2015.12 255.6C2024.72 255.6 2032.42 254.7 2038.22 252.9C2044.22 250.9 2048.62 248.2 2051.42 244.8C2054.22 241.4 2055.62 237.5 2055.62 233.1C2055.62 227.5 2053.42 223.1 2049.02 219.9C2044.62 216.5 2038.82 213.8 2031.62 211.8C2024.42 209.6 2016.42 207.6 2007.62 205.8C1999.02 203.8 1990.32 201.4 1981.52 198.6C1972.92 195.8 1965.02 192.2 1957.82 187.8C1950.62 183.4 1944.72 177.6 1940.12 170.4C1935.72 163.2 1933.52 154 1933.52 142.8C1933.52 130.8 1936.72 119.9 1943.12 110.1C1949.72 100.1 1959.52 92.2 1972.52 86.4C1985.72 80.4 2002.22 77.4 2022.02 77.4C2035.22 77.4 2048.22 79 2061.02 82.2C2073.82 85.2 2085.12 89.8 2094.92 96L2079.92 132.9C2070.12 127.3 2060.32 123.2 2050.52 120.6C2040.72 117.8 2031.12 116.4 2021.72 116.4C2012.32 116.4 2004.62 117.5 1998.62 119.7C1992.62 121.9 1988.32 124.8 1985.72 128.4C1983.12 131.8 1981.82 135.8 1981.82 140.4C1981.82 145.8 1984.02 150.2 1988.42 153.6C1992.82 156.8 1998.62 159.4 2005.82 161.4C2013.02 163.4 2020.92 165.4 2029.52 167.4C2038.32 169.4 2047.02 171.7 2055.62 174.3C2064.42 176.9 2072.42 180.4 2079.62 184.8C2086.82 189.2 2092.62 195 2097.02 202.2C2101.62 209.4 2103.92 218.5 2103.92 229.5C2103.92 241.3 2100.62 252.1 2094.02 261.9C2087.42 271.7 2077.52 279.6 2064.32 285.6C2051.32 291.6 2034.82 294.6 2014.82 294.6ZM2237.7 291V120.6H2170.5V81H2353.5V120.6H2286.3V291H2237.7ZM2529.43 294.6C2499.63 294.6 2476.33 286.3 2459.53 269.7C2442.73 253.1 2434.33 229.4 2434.33 198.6V81H2482.93V196.8C2482.93 216.8 2487.03 231.2 2495.23 240C2503.43 248.8 2514.93 253.2 2529.73 253.2C2544.53 253.2 2556.03 248.8 2564.23 240C2572.43 231.2 2576.53 216.8 2576.53 196.8V81H2624.53V198.6C2624.53 229.4 2616.13 253.1 2599.33 269.7C2582.53 286.3 2559.23 294.6 2529.43 294.6ZM2732.56 291V81H2827.96C2850.76 81 2870.86 85.4 2888.26 94.2C2905.66 102.8 2919.26 114.9 2929.06 130.5C2938.86 146.1 2943.76 164.6 2943.76 186C2943.76 207.2 2938.86 225.7 2929.06 241.5C2919.26 257.1 2905.66 269.3 2888.26 278.1C2870.86 286.7 2850.76 291 2827.96 291H2732.56ZM2781.16 251.1H2825.56C2839.56 251.1 2851.66 248.5 2861.86 243.3C2872.26 237.9 2880.26 230.3 2885.86 220.5C2891.66 210.7 2894.56 199.2 2894.56 186C2894.56 172.6 2891.66 161.1 2885.86 151.5C2880.26 141.7 2872.26 134.2 2861.86 129C2851.66 123.6 2839.56 120.9 2825.56 120.9H2781.16V251.1ZM3040.41 291V81H3089.01V291H3040.41ZM3300.85 294.6C3284.25 294.6 3268.85 291.9 3254.65 286.5C3240.65 281.1 3228.45 273.5 3218.05 263.7C3207.85 253.9 3199.85 242.4 3194.05 229.2C3188.45 216 3185.65 201.6 3185.65 186C3185.65 170.4 3188.45 156 3194.05 142.8C3199.85 129.6 3207.95 118.1 3218.35 108.3C3228.75 98.5 3240.95 90.9 3254.95 85.5C3268.95 80.1 3284.15 77.4 3300.55 77.4C3317.15 77.4 3332.35 80.1 3346.15 85.5C3360.15 90.9 3372.25 98.5 3382.45 108.3C3392.85 118.1 3400.95 129.6 3406.75 142.8C3412.55 155.8 3415.45 170.2 3415.45 186C3415.45 201.6 3412.55 216.1 3406.75 229.5C3400.95 242.7 3392.85 254.2 3382.45 264C3372.25 273.6 3360.15 281.1 3346.15 286.5C3332.35 291.9 3317.25 294.6 3300.85 294.6ZM3300.55 253.2C3309.95 253.2 3318.55 251.6 3326.35 248.4C3334.35 245.2 3341.35 240.6 3347.35 234.6C3353.35 228.6 3357.95 221.5 3361.15 213.3C3364.55 205.1 3366.25 196 3366.25 186C3366.25 176 3364.55 166.9 3361.15 158.7C3357.95 150.5 3353.35 143.4 3347.35 137.4C3341.55 131.4 3334.65 126.8 3326.65 123.6C3318.65 120.4 3309.95 118.8 3300.55 118.8C3291.15 118.8 3282.45 120.4 3274.45 123.6C3266.65 126.8 3259.75 131.4 3253.75 137.4C3247.75 143.4 3243.05 150.5 3239.65 158.7C3236.45 166.9 3234.85 176 3234.85 186C3234.85 195.8 3236.45 204.9 3239.65 213.3C3243.05 221.5 3247.65 228.6 3253.45 234.6C3259.45 240.6 3266.45 245.2 3274.45 248.4C3282.45 251.6 3291.15 253.2 3300.55 253.2Z" fill="#0059FF"/>
</svg>
